<svg xmlns="http://www.w3.org/2000/svg" width="74" height="74" viewBox="0 0 74 74"><defs><clipPath id="9z70a"><path fill="#fff" d="M0 74V0h74v74zM37 2C17.67 2 2 17.67 2 37s15.67 35 35 35 35-15.67 35-35S56.33 2 37 2z"/></clipPath></defs><g><g><path fill="#fff" d="M72 37c0 19.33-15.67 35-35 35S2 56.33 2 37 17.67 2 37 2s35 15.67 35 35z"/><path fill="none" stroke="#331f15" stroke-miterlimit="20" stroke-width="4" d="M72 37c0 19.33-15.67 35-35 35S2 56.33 2 37 17.67 2 37 2s35 15.67 35 35z" clip-path="url(&quot;#9z70a&quot;)"/></g><g><path fill="#331f15" d="M30.274 53.978C24.65 53.948 20 42.406 20 36.532c0-9.598 7.167-11.698 9.927-11.698 1.248 0 2.576.49 3.742.927.82.305 1.669.616 2.141.616.28 0 .945-.267 1.535-.497 1.255-.504 2.812-1.12 4.628-1.12h.008c1.358 0 5.461.297 7.934 4.028l.576.875-.834.63c-1.189.906-3.359 2.545-3.359 5.809 0 3.857 2.458 5.34 3.64 6.06.523.311 1.062.638 1.062 1.35 0 .467-3.683 10.429-9.034 10.429-1.307 0-2.237-.394-3.049-.742-.826-.356-1.535-.66-2.716-.66-.598 0-1.35.282-2.148.586-1.092.408-2.325.875-3.727.875h-.052zM42.534 16c.14 5.051-3.454 8.552-7.041 8.33z"/></g></g></svg>