<svg xmlns="http://www.w3.org/2000/svg" width="33" height="27" viewBox="0 0 33 27"><g><g><path fill="#f19137" d="M11.762 10.281c.042-.584.096-1.168.161-1.752.126-1.116 1.046-1.98 2.193-2.062 1.475-.1 2.956-.17 4.443-.21l.896-.018c.102 0 .198-.006.299-.006-.012-.432-.03-.858-.054-1.29l-.06-.877a43.382 43.382 0 0 0-.16-1.753c-.126-1.115-1.046-1.98-2.193-2.062-1.475-.099-2.956-.169-4.444-.21l-.896-.017A104.292 104.292 0 0 0 2.486.25C1.346.333.419 1.198.294 2.313a48.05 48.05 0 0 0-.191 8.442l.15 1.758.035.35c.125 1.116 1.051 1.987 2.192 2.068h.018c.072.006.143.012.215.012a.625.625 0 0 1 .585.62v2.096c0 .497.281.94.735 1.157a1.35 1.35 0 0 0 1.386-.129C6.476 17.9 7.92 16.701 8.81 15.44a.633.633 0 0 1 .52-.263h.006c.765.006 1.53 0 2.3-.012a49.836 49.836 0 0 1 .065-4.007zm20.944-.168c-.125-1.116-1.045-1.98-2.192-2.062a108.884 108.884 0 0 0-9.455-.234l-.896.018a112 112 0 0 0-4.444.21c-1.147.076-2.067.946-2.192 2.062-.066.584-.12 1.169-.162 1.753l-.06.876a47.506 47.506 0 0 0 .221 7.927c.025.234.09.456.18.66.352.806 1.123 1.338 2.019 1.402 2.622.181 5.292.263 7.938.251h.006c.209 0 .4.1.52.263.896 1.262 2.341 2.46 3.392 3.248.233.175.514.263.8.263.198 0 .4-.047.586-.134.454-.222.735-.666.735-1.157v-2.097c0-.321.257-.596.585-.62.072-.005.143-.011.215-.011h.018a2.345 2.345 0 0 0 2.192-2.068l.036-.35.15-1.759a48.02 48.02 0 0 0-.192-8.44z"/></g></g></svg>