<svg width="73" height="38" viewBox="0 0 73 38" fill="none" xmlns="http://www.w3.org/2000/svg">
<path d="M1.6413 0.178307C1.23549 0.0952807 0.839214 0.356946 0.756188 0.762754C0.673162 1.16856 0.934827 1.56484 1.34063 1.64786L1.6413 0.178307ZM71.5398 36.6615C71.9532 36.6345 72.2664 36.2775 72.2394 35.8642L71.7995 29.1286C71.7725 28.7152 71.4156 28.402 71.0023 28.429C70.5889 28.456 70.2757 28.813 70.3027 29.2263L70.6937 35.2136L64.7064 35.6045C64.2931 35.6315 63.9799 35.9885 64.0069 36.4018C64.0339 36.8151 64.3909 37.1283 64.8042 37.1013L71.5398 36.6615ZM1.34063 1.64786C27.516 7.00322 51.3173 19.2103 70.9963 36.4768L71.9856 35.3493C52.1189 17.9182 28.0826 5.58807 1.6413 0.178307L1.34063 1.64786Z" fill="#331F15"/>
</svg>
