<svg xmlns="http://www.w3.org/2000/svg" width="74" height="74" viewBox="0 0 74 74"><defs><clipPath id="6lf5a"><path fill="#fff" d="M0 74V0h74v74zM37 2C17.67 2 2 17.67 2 37s15.67 35 35 35 35-15.67 35-35S56.33 2 37 2z"/></clipPath></defs><g><g><path fill="#fff" d="M72 37c0 19.33-15.67 35-35 35S2 56.33 2 37 17.67 2 37 2s35 15.67 35 35z"/><path fill="none" stroke="#331f15" stroke-miterlimit="20" stroke-width="4" d="M72 37c0 19.33-15.67 35-35 35S2 56.33 2 37 17.67 2 37 2s35 15.67 35 35z" clip-path="url(&quot;#6lf5a&quot;)"/></g><g><g><path fill="#ffde00" d="M54.68 34.303l-6.175-3.523-6.325 6.244 6.325 6.245 6.196-3.53a3.127 3.127 0 0 0 1.546-2.708 3.175 3.175 0 0 0-1.567-2.728z"/></g><g><path fill="#00c6ff" d="M42.183 37.022L24.962 19.9A3.185 3.185 0 0 0 24 22.178V51.81c0 .886.363 1.688.962 2.279z"/></g><g><path fill="#00f270" d="M42.182 37.02l6.325-6.245.007-.007-8.469-4.817-11.168-6.476a3.211 3.211 0 0 0-3.255-.063 4.824 4.824 0 0 0-.662.485z"/></g><g><path fill="#f52d46" d="M24.96 54.093c.214.19.427.338.662.485.513.275 1.047.422 1.582.422.576 0 1.132-.168 1.645-.464l11.19-6.448 8.468-4.817-.007-.007-6.325-6.244z"/></g></g></g></svg>