<svg xmlns="http://www.w3.org/2000/svg" width="22" height="22" viewBox="0 0 22 22"><g><g><path fill="#fff" d="M14.923.5c3.606 0 6.58 2.974 6.58 6.58v7.84c0 3.606-2.974 6.58-6.58 6.58H7.08C3.475 21.5.5 18.526.5 14.92V7.08C.5 3.473 3.475.5 7.08.5zm4.597 6.58c0-2.524-2.073-4.597-4.597-4.597H7.08c-2.524 0-4.597 2.073-4.597 4.596v7.842c0 2.523 2.073 4.596 4.597 4.596h7.843c2.524 0 4.597-2.073 4.597-4.596zm-3.245 3.875a5.232 5.232 0 0 1-5.228 5.227 5.232 5.232 0 0 1-5.229-5.227 5.232 5.232 0 0 1 5.229-5.228 5.232 5.232 0 0 1 5.228 5.228zm-1.983 0c0-1.803-1.352-3.245-3.245-3.245S7.71 9.152 7.802 11.045a3.231 3.231 0 0 0 3.245 3.245c1.803 0 3.245-1.442 3.245-3.335zm1.622-5.588a.721.721 0 1 1 1.443 0 .721.721 0 0 1-1.443 0z"/></g></g></svg>