<svg xmlns="http://www.w3.org/2000/svg" width="60" height="60" viewBox="0 0 60 60"><g><g><g><path fill="#e4405f" d="M0 30C0 13.431 13.431 0 30 0c16.569 0 30 13.431 30 30 0 16.569-13.431 30-30 30C13.431 60 0 46.569 0 30z"/></g><g><path fill="#fff" d="M33.923 19.5c3.606 0 6.58 2.974 6.58 6.58v7.84c0 3.606-2.974 6.58-6.58 6.58H26.08c-3.605 0-6.58-2.974-6.58-6.58v-7.84c0-3.606 2.975-6.58 6.58-6.58zm4.597 6.58c0-2.524-2.073-4.597-4.597-4.597H26.08c-2.524 0-4.597 2.073-4.597 4.596v7.842c0 2.523 2.073 4.596 4.597 4.596h7.843c2.524 0 4.597-2.073 4.597-4.596zm-3.245 3.875a5.232 5.232 0 0 1-5.228 5.227 5.232 5.232 0 0 1-5.229-5.227 5.232 5.232 0 0 1 5.229-5.228 5.232 5.232 0 0 1 5.228 5.228zm-1.983 0c0-1.803-1.352-3.245-3.245-3.245s-3.336 1.442-3.245 3.335a3.231 3.231 0 0 0 3.245 3.245c1.803 0 3.245-1.442 3.245-3.335zm1.622-5.588a.721.721 0 1 1 1.443 0 .721.721 0 0 1-1.443 0z"/></g></g></g></svg>