<svg xmlns="http://www.w3.org/2000/svg" width="69" height="63" viewBox="0 0 69 63"><g><g><path fill="#f19137" d="M30.6 49.678c.933.752 1.68 1.505 2.519 2.352l.56.564c.187-.188.467-.376.653-.658.84-.753 1.587-1.6 2.52-2.258 2.333-1.976 5.04-3.67 7.932-4.987 5.133-2.352 9.705-2.823 14.838-3.105a98.966 98.966 0 0 1 7.466-.282l-1.96-2.446a237.722 237.722 0 0 0-5.226-6.398c-2.146-2.729-4.48-5.457-6.066-7.527v-1.13c0-2.257-.373-4.516-1.12-6.585-.373-1.13-.933-2.259-1.493-3.294a5.47 5.47 0 0 0 .467-1.317 7.784 7.784 0 0 0-.374-4.798c-.56-1.411-1.586-2.729-2.8-3.67-1.679-1.317-3.545-1.787-5.412-1.693-1.773.094-3.36.753-4.852 1.788l-1.4-.283c-1.12-.188-2.427-.282-3.733-.282-1.213 0-2.613 0-4.013.188-.746.094-1.493.188-2.146.377-1.4-1.224-2.706-1.976-4.2-2.259-2.053-.376-4.012.095-5.879 1.412-.28.188-.56.376-.746.564-1.12 1.035-1.867 2.352-2.333 3.576a8.866 8.866 0 0 0-.467 4.328c.187 1.129.467 1.975.933 2.822-.373.847-.653 1.694-.933 2.54-.746 2.353-1.12 4.799-1.12 6.398 0 1.13 0 1.788.094 2.259-.934 1.41-2.147 3.104-3.267 4.892-2.24 3.387-4.666 7.245-6.812 10.632 7.186 0 13.811.188 20.53 3.199 2.8 1.411 5.506 3.105 7.84 5.08z"/></g><g><path fill="#331f15" d="M29.203 16.176c.653 0 1.213-.564 1.213-1.223 0-.658-.56-1.223-1.213-1.223s-1.213.565-1.213 1.223c0 .659.56 1.223 1.213 1.223z"/></g><g><path fill="#331f15" d="M36.853 16.176c.653 0 1.213-.564 1.213-1.223 0-.658-.56-1.223-1.213-1.223s-1.213.565-1.213 1.223c0 .659.56 1.223 1.213 1.223z"/></g><g><path fill="#fff" d="M39.648 20.324c.466 0 .933 0 1.306-.094 2.426 1.882 3.92 4.705 3.92 7.81 0 5.739-5.04 15.712-11.292 15.712-6.253 0-11.292-9.973-11.292-15.712 0-3.011 1.493-5.834 3.826-7.716h.56c.933 0 1.773-.094 2.52-.376.373-.094.653-.282 1.026-.47.28-.189.653-.377.933-.659.28-.282.56-.659.84-1.035.467-.094 1.027-.094 1.493-.094h.56a8.505 8.505 0 0 0 1.96 1.694c.28.188.653.376 1.027.47.746.188 1.68.282 2.613.47zm-6.44 11.385c3.08-.094 5.973-3.858 5.973-7.15 0-3.294-2.52-4.705-5.88-4.705-3.359 0-6.345 1.411-6.345 4.704 0 3.293 3.266 7.245 6.252 7.151z"/></g><g><path fill="#331f15" d="M36.762 32.833c-1.306.847-2.986 1.318-4.76.941a6.467 6.467 0 0 1-1.772-.564l-1.213-.565-1.027 2.352 1.213.565c.84.376 1.587.564 2.333.753 2.52.47 4.76-.094 6.626-1.318 1.773-1.129 3.173-2.822 3.92-4.516.28-.564.466-1.129.56-1.693l.28-1.318-2.52-.47-.28 1.317c-.094.377-.187.753-.374 1.13-.56 1.222-1.586 2.54-2.986 3.386z"/></g><g><path fill="#331f15" d="M33.304 31.795c2.987-.094 5.973-3.952 5.973-7.15 0-3.294-2.52-4.705-5.88-4.705-3.359 0-6.345 1.411-6.345 4.704-.093 3.2 3.173 7.151 6.252 7.151z"/></g><g><path fill="#fff" d="M33.863 21.074c-.374-.094-.747-.094-1.214-.094-2.333 0-4.479 1.035-4.479 3.293 0 .753.28 1.505.653 2.258.374-3.387 2.427-5.363 5.04-5.457z"/></g><g><path fill="#331f15" d="M20.147 11.573L19.4 8.75c1.96-.564 4.293-.847 6.626-.847 2.706 0 4.293.377 6.626 1.13.466.188.746.094 1.026 0h.093c.187 0 .374-.095.56-.189.094-.094.28-.094.373-.188.374-.188.747-.282 1.027-.376 1.4-.47 3.64-.47 5.88-.282 2.332.188 4.572.658 5.972 1.317l-1.12 2.634c-.093-.094-.28-.094-.373-.188 0 .282.093.565.093.847.093.94 0 1.788-.187 2.634-.186.565-.28 1.035-.466 1.412-.653 1.505-1.773 2.446-3.266 2.916-.374.094-.84.189-1.307.283-.467.094-.84.094-1.306.094-.934 0-1.774-.094-2.52-.377-.373-.094-.653-.282-1.027-.47-.746-.376-1.4-1.035-1.96-1.694-.28-.282-.466-.658-.653-.94-.186-.283-.373-.565-.466-.847-.094.094-.094.282-.187.376-.28.565-.56 1.129-.84 1.505-.28.47-.56.753-.84 1.035-.28.283-.56.47-.933.659-.373.188-.653.376-1.026.47-.654.283-1.587.377-2.52.377h-.56c-.746 0-1.493-.094-2.053-.282-.747-.189-1.4-.565-1.96-1.035s-1.026-1.035-1.306-1.788c-.187-.565-.373-1.6-.467-2.635-.093-.94-.093-1.881 0-2.54-.093 0-.186 0-.186-.188zm14.558 1.6c.093 1.034.373 1.787.746 2.446.373.752 1.027 1.41 1.773 1.881.187.094.374.189.653.283.467.188 1.214.282 1.867.282.746 0 1.4-.094 1.96-.282.466-.189.933-.377 1.213-.659.28-.282.56-.659.746-1.129.094-.188.187-.565.28-.94.187-.754.28-1.412.187-2.07-.093-.189-.093-.283-.093-.471-.094-.094-.094-.188-.094-.283-.093-.094-.093-.094-.093-.188-.093-.188-.187-.376-.467-.47-.653-.282-1.866-.376-2.146-.376-1.866-.189-4.013-.283-5.786.47-.747.376-1.026.753-.747 1.505zM22.48 15.147c0 .377.093.753.186.941.187.47.467.847.747 1.13.373.281.746.47 1.213.658.467.188 1.213.282 1.96.282.653 0 1.4-.094 1.866-.282.467-.188.933-.377 1.307-.753.466-.376.84-1.035 1.213-1.788a7.847 7.847 0 0 0 .746-2.634v-.659c-.186-.094-.466-.188-.653-.282-1.493-.47-3.266-.753-5.133-.753-.56 0-1.4 0-2.24.094-1.026.189-1.306.189-1.306 1.318-.093.94 0 2.07.094 2.728z"/></g><g><path fill="#331f15" d="M4.183 47.7c5.412.093 9.332.47 15.304 3.386 5.6 2.729 10.266 6.68 12.785 9.692l1.4 1.693 1.4-1.693c2.52-3.011 7.092-6.869 12.785-9.691 6.532-3.2 11.105-3.764 17.17-3.482 2.987.094 4.2-.282 4.107-2.916-9.052 0-14.558-.377-23.237 3.857-5.04 2.446-9.332 5.74-12.225 8.656-2.893-2.917-7.186-6.21-12.225-8.656C13.515 44.69 8.569 44.594.17 44.783c0 3.105 1.773 2.822 4.013 2.916z"/></g><g><path fill="#331f15" d="M21.917 45.344C15.011 42.239 8.106 42.05.64 42.05c2.24-3.576 4.76-7.622 7.092-11.103a113.916 113.916 0 0 1 3.453-5.08c-.093-.47-.093-1.13-.093-2.353 0-1.505.373-4.14 1.12-6.586.28-.94.56-1.787.933-2.634-.467-.847-.747-1.788-.933-2.917-.094-1.317 0-2.917.56-4.516.56-1.317 1.306-2.635 2.52-3.764.186-.188.466-.47.746-.658C17.998 1.029 20.05.558 22.197.934c1.493.283 2.893.941 4.2 2.07.746-.188 1.493-.282 2.24-.376 1.492-.188 2.892-.188 4.198-.188 1.4 0 2.707.094 3.92.282.56.094 1.026.188 1.493.282 1.586-1.035 3.36-1.693 5.133-1.787 1.96-.094 3.92.47 5.692 1.787 1.307 1.035 2.333 2.353 2.893 3.858.653 1.6.747 3.387.373 4.986-.186.565-.373.941-.56 1.412.654 1.035 1.12 2.164 1.587 3.387.84 2.164 1.213 4.516 1.213 6.868v1.223c1.587 2.07 4.013 4.987 6.253 7.81 2.24 2.728 4.386 5.363 5.412 6.68l2.053 2.54c-2.613 0-5.039.094-7.745.282-5.32.377-9.986.847-15.398 3.294-3.08 1.41-5.88 3.105-8.306 5.174a31.154 31.154 0 0 0-2.613 2.353l-.653.658-.56-.564c-.84-.847-1.68-1.694-2.613-2.447a35.998 35.998 0 0 0-8.492-5.174zM8.946 35.276c-.934 1.317-1.774 2.635-2.613 3.952 0 0 17.264.188 27.342 9.69 9.612-9.502 28.463-10.255 28.463-10.255-3.36-4.233-8.865-9.785-11.105-12.795.093-.753.093-1.506.093-2.353 0-1.787-.28-3.575-.84-5.174a17.254 17.254 0 0 0-2.986-5.457c.187-.095.28-.189.467-.283.653-.376 1.026-.846 1.213-1.6.093-.093.093-.187.093-.281.187-.753 0-1.694-.373-2.54-.373-.754-.933-1.506-1.68-2.07-1.12-.848-2.24-1.13-3.453-1.036-1.12.094-2.333.659-3.36 1.412-.372.282-.652.564-.932.846-.28-.094-.467-.188-.747-.282-1.68-.564-3.36-.847-5.506-.847-1.773 0-3.733.094-5.6.47-.652.189-1.305.377-1.959.66-.653-.847-1.493-1.6-2.24-2.07a4.343 4.343 0 0 0-.933-.471c-1.493-.565-3.08-.188-4.386 1.035-.84.847-1.4 1.788-1.68 2.729-.186.846-.28 1.693-.186 2.446 0 .47.093.847.28 1.129.28.564.84.94 1.68 1.129-1.587 2.258-2.613 6.021-2.987 8.656-.093.659-.093 1.129-.093 1.6v1.505c.093.847.187.94.28 1.693-1.866 2.635-4.2 5.552-6.252 8.562z"/></g></g></svg>