<svg xmlns="http://www.w3.org/2000/svg" width="139" height="38" viewBox="0 0 139 38"><g><g><path fill="#331f15" d="M5.895 34.787c0 1.624-.65 2.57-1.948 2.57S2 36.411 2 34.787c0-1.623.65-2.57 1.947-2.57 1.169 0 1.948.812 1.948 2.57zm-.909 0c0-1.082-.26-1.623-1.039-1.623-.649 0-1.038.406-1.038 1.623 0 1.083.26 1.624 1.038 1.624.65 0 1.04-.541 1.04-1.624zm26.097 0c.13.27.13.541 0 .812h-1.688a.894.894 0 0 1 0-.812zm80.885 1.488c.13.27.13.541 0 .812h-2.986v-4.87h2.856c.13.27.13.541 0 .812h-2.077v1.217h1.818c.13.27.13.541 0 .812h-1.818v1.217zm3.246-4.058c.13.406.13.677 0 .947h-1.688v3.923a1.069 1.069 0 0 1-.909 0v-4.87zm3.765 2.57c0 1.488-.779 2.435-2.077 2.435-.519 0-.909-.135-1.298-.27 0-.27.129-.677.259-.812.26.135.649.27.909.27.779 0 1.169-.405 1.298-1.217h-1.687a.893.893 0 0 1 0-.811h1.687c-.129-.947-.519-1.353-1.168-1.353-.39 0-.649.135-.909.406-.13 0-.389-.27-.389-.541.389-.406.908-.677 1.428-.677 1.298 0 1.947.947 1.947 2.57zM9.271 32.353c.39-.136.649-.136.908 0v4.87c-.26.134-.649.134-.908 0v-2.03H7.583v2.03c-.26.134-.65.134-.909 0v-4.87c.26-.136.65-.136.909 0v1.893H9.27zm2.96.22a.25.25 0 0 1 .248-.22h2.514a.25.25 0 0 1 .25.25v4.754c-.26.136-.65.136-.909 0v-4.193h-1.168l-.26 2.706c-.13 1.082-.52 1.487-1.298 1.487-.26 0-.39 0-.65-.135-.13-.406-.088-.587.042-.722h.26c.26 0 .607-.36.607-.901zm6.128-.22a35.268 35.268 0 0 1 1.558 4.87c-.26.134-.65.134-.909 0-.13-.271-.13-.677-.26-.948h-1.947c-.13.27-.13.677-.26.947-.26.135-.649.135-.909 0 .39-1.758.91-3.381 1.558-4.87.39-.135.78-.135 1.169 0zm.26 3.11c-.26-.81-.52-1.622-.78-2.299-.26.677-.519 1.488-.778 2.3zm3.895-3.651c-.52 0-.91-.27-.91-.812h.52c0 .135.13.27.26.27s.26-.135.26-.27h.519c-.13.541-.39.812-.65.812zm1.428.54v4.87c-.26.135-.65.135-.91 0v-3.246a71.49 71.49 0 0 0-1.687 3.246c-.26.135-.65.135-.909 0v-4.87c.26-.135.65-.135.91 0V35.6c.389-1.082 1.038-2.3 1.687-3.246.39-.136.65-.136.909 0zm3.635 0c.26-.135.65-.135.909 0v4.87c-.26.135-.65.135-.909 0v-2.029h-1.688v2.03c-.26.134-.649.134-.909 0v-4.87c.26-.136.65-.136.91 0v1.893h1.687zm9.348 0c.26-.135.52-.135.909 0v4.87H31.99v-4.87c.26-.135.65-.135.91 0v4.059h1.557v-4.058c.26-.136.65-.136.909 0v4.058h1.558zm4.155 2.165a17.56 17.56 0 0 1 1.428 2.705c-.39.135-.78.135-1.039 0-.26-.676-.649-1.352-1.039-2.029l-.778.812v1.217c-.26.135-.65.135-.91 0v-4.87c.26-.135.65-.135.91 0v2.57c.778-.676 1.298-1.622 1.687-2.57.26-.135.65-.135.91 0-.26.677-.78 1.489-1.17 2.165zm5.453.27c0 1.624-.65 2.57-1.948 2.57s-1.947-.946-1.947-2.57c0-1.623.649-2.57 1.947-2.57 1.299 0 1.948.812 1.948 2.57zm-.91 0c0-1.082-.259-1.623-1.038-1.623-.649 0-1.038.406-1.038 1.623 0 1.083.26 1.624 1.038 1.624.78 0 1.039-.541 1.039-1.624zm8.7-2.434a35.282 35.282 0 0 1 1.558 4.87c-.26.134-.65.134-.91 0-.13-.271-.13-.677-.259-.948h-1.947c-.13.27-.13.677-.26.947-.26.135-.65.135-.909 0 .39-1.758.909-3.381 1.558-4.87.39-.135.78-.135 1.169 0zm.13 3.11c-.26-.81-.52-1.622-.78-2.299-.26.677-.519 1.488-.779 2.3zm7.53-3.246v4.87c-.26.135-.65.135-.91 0v-4.058h-1.687v4.058c-.26.135-.65.135-.909 0v-4.87zm4.674 2.57c0 1.624-.65 2.57-1.948 2.57s-1.947-.946-1.947-2.57c0-1.623.649-2.57 1.947-2.57s1.948.812 1.948 2.57zm-.91 0c0-1.082-.259-1.623-1.038-1.623-.649 0-1.039.406-1.039 1.623 0 1.083.26 1.624 1.04 1.624.648 0 1.038-.541 1.038-1.624zm5.194 1.488h.52V37.9a.798.798 0 0 1-.78 0v-.812h-3.115v.812a.798.798 0 0 1-.78 0v-1.624h.52c.26-.27.52-.811.52-1.352l.259-2.706h2.856zm-.779-3.11h-1.31c-.235 1.622-.051 2.398-.507 3.11h1.817zm4.674-.948c.13.406.13.677 0 .947h-1.688v3.923c-.26.135-.649.135-.908 0v-4.87zm4.155 2.57c0 1.624-.65 2.57-1.948 2.57s-1.947-.946-1.947-2.57c0-1.623.649-2.57 1.947-2.57 1.299 0 1.948.812 1.948 2.57zm-.909 0c0-1.082-.26-1.623-1.039-1.623-.649 0-1.038.406-1.038 1.623 0 1.083.26 1.624 1.038 1.624.78 0 1.039-.541 1.039-1.624zm4.804-2.57c.13.27.13.677 0 .947h-1.299v3.923c-.26.135-.649.135-.908 0v-3.923H79.38a1.2 1.2 0 0 1 0-.947zm4.154 2.57c0 1.624-.649 2.57-1.947 2.57s-1.948-.946-1.948-2.57c0-1.623.65-2.57 1.948-2.57s1.947.812 1.947 2.57zm-.908 0c0-1.082-.26-1.623-1.04-1.623-.648 0-1.038.406-1.038 1.623 0 1.083.26 1.624 1.039 1.624.65 0 1.039-.541 1.039-1.624zm5.063.947c0 .947-.779 1.488-1.947 1.488-.39 0-.91-.135-1.299-.27v-4.464c.39-.135.91-.27 1.428-.27.91 0 1.558.54 1.558 1.352 0 .541-.26.947-.649 1.082.39.135.78.541.91 1.082zm-2.337-2.57v1.218h.52c.519 0 .778-.27.778-.677 0-.405-.26-.676-.779-.676-.26 0-.519 0-.649.135zm1.298 2.57c0-.406-.39-.676-.908-.676h-.52v1.353h.52c.519 0 .908-.27.908-.677zm3.895-1.217a17.56 17.56 0 0 1 1.428 2.705c-.389.135-.778.135-1.038 0-.26-.676-.65-1.352-1.039-2.029l-.779.812v1.217c-.26.135-.649.135-.909 0v-4.87c.26-.135.65-.135.91 0v2.57c.778-.676 1.298-1.622 1.687-2.57.26-.135.65-.135.909 0-.26.677-.65 1.489-1.169 2.165zm5.583-2.164v4.87c-.26.134-.649.134-.909 0v-3.247a71.49 71.49 0 0 0-1.687 3.246c-.26.135-.65.135-.91 0v-4.87c.26-.135.65-.135.91 0V35.6c.389-1.082 1.038-2.3 1.687-3.246.26-.136.52-.136.91 0zm5.193 2.164c.52.811 1.039 1.758 1.429 2.705-.39.135-.779.135-1.039 0-.26-.676-.649-1.352-1.039-2.029l-.779.812v1.217a1.069 1.069 0 0 1-.909 0v-4.87c.26-.135.65-.135.909 0v2.57c.779-.676 1.299-1.622 1.688-2.57.26-.135.649-.135.909 0-.26.677-.649 1.489-1.169 2.165zm34.173.27c0 1.488-.779 2.435-2.077 2.435-.52 0-.909-.135-1.299-.27 0-.27.13-.677.26-.812.26.135.649.27.909.27.779 0 1.168-.405 1.298-1.217h-1.688a.9.9 0 0 1 0-.811h1.688c-.13-.947-.519-1.353-1.168-1.353-.39 0-.649.135-.909.406-.13 0-.39-.27-.39-.541.39-.406.909-.677 1.429-.677 1.298 0 1.947.947 1.947 2.57zm-7.18 0c0 1.624-.649 2.57-1.947 2.57-1.299 0-1.948-.946-1.948-2.57 0-1.623.649-2.57 1.948-2.57 1.298 0 1.947.812 1.947 2.57zm-2.986 0c0 1.083.26 1.624 1.039 1.624.779 0 1.038-.541 1.038-1.624 0-1.082-.259-1.623-1.038-1.623-.65 0-1.039.406-1.039 1.623zm6.401-2.57c.13.406.13.677 0 .947h-1.688v3.923c-.26.135-.649.135-.909 0v-4.87zm-9.751.136v4.87c-.26.134-.649.134-.909 0v-3.247a72.518 72.518 0 0 0-1.688 3.246 1.069 1.069 0 0 1-.909 0v-4.87c.26-.135.65-.135.909 0V35.6c.39-1.082 1.039-2.3 1.688-3.246.26-.136.519-.136.909 0zm-77.497.22a.25.25 0 0 1 .249-.22h2.514a.25.25 0 0 1 .25.25v4.754c-.26.136-.65.136-.909 0v-4.193h-1.168l-.26 2.706c-.13 1.082-.52 1.487-1.298 1.487-.26 0-.39 0-.65-.135-.13-.406-.088-.587.042-.722h.26c.26 0 .607-.36.607-.901z"/></g><g><path fill="#331f15" d="M22.642.46c-2.576 7.96-6.515 17.758-10.303 25.26-2.272.459-4.848.459-7.12 0 1.514-2.297 2.726-4.593 3.787-6.89-.606-.153-1.212-.153-1.818-.306C4.46 12.86 2.037 6.277.37.459 2.491 0 5.067 0 7.188.46c1.06 4.134 2.424 8.573 4.09 12.86 1.819-4.287 3.334-8.42 4.546-12.86C17.945 0 20.369 0 22.642.46zm21.817 25.412c0-4.592-.303-9.644-.758-14.39-1.515 3.215-3.03 7.042-4.09 10.716-1.515.613-3.333.613-5 0-1.06-3.674-2.727-7.654-4.242-10.87-.455 4.44-.606 9.492-.758 14.391-2.121.46-4.394.46-6.363 0 .303-8.114.909-17.299 1.97-25.26a11.781 11.781 0 0 1 6.514 0c2.273 4.134 4.091 9.186 5.606 14.085 1.364-4.9 3.182-9.798 5.303-14.085 1.97-.612 4.394-.612 6.363 0 1.06 7.961 1.818 17.146 1.97 25.26-1.97.613-4.242.613-6.515.153zm15.757-12.86c0 4.747 1.818 7.196 5.606 7.196 1.818 0 3.333-.306 4.393-.918 1.212 1.377 1.667 3.52 1.515 5.664-1.818.918-4.09 1.53-6.666 1.53-7.272 0-11.363-4.592-11.363-13.012C53.701 5.205 57.943 0 64.458 0c3.182 0 5.757 1.378 7.121 3.674-.455 1.837-1.818 3.521-3.636 4.287-.606-1.225-1.818-1.837-3.182-1.837-2.879 0-4.394 2.143-4.545 6.889zM81.124 25.72a11.78 11.78 0 0 1-6.515 0V.46a11.782 11.782 0 0 1 6.515 0v12.095c2.879-3.369 5.454-7.655 7.12-12.095 1.97-.612 4.698-.612 6.667 0-1.363 3.828-3.333 7.808-5.909 11.329 2.88 4.287 5.455 9.185 7.273 13.931a14.03 14.03 0 0 1-7.121 0c-1.06-3.215-2.576-6.583-4.242-9.644-1.06 1.377-2.424 2.908-3.788 4.133zm24.241-6.889c-.606-.153-1.212-.153-1.818-.306C100.82 12.86 98.396 6.277 96.729.459 98.85 0 101.426 0 103.547.46c1.061 4.134 2.424 8.573 4.091 12.86 1.818-4.287 3.333-8.42 4.545-12.86 2.121-.459 4.545-.459 6.667 0-2.576 7.961-6.515 17.759-10.303 25.26-2.273.46-4.848.46-7.121 0a112.153 112.153 0 0 0 3.939-6.889zM127.94 6.124l-1.364 11.788c-.757 5.97-3.03 8.42-7.726 8.42-1.364 0-3.031-.46-4.243-1.072 0-1.99.455-3.98 1.364-5.205.454.153 1.06.306 1.666.306 1.667 0 2.273-.918 2.576-3.215l1.818-16.84h16.666V25.72c-2.121.46-4.394.46-6.515 0V6.124z"/></g></g></svg>