<?xml version="1.0" encoding="UTF-8" standalone="no"?>
<svg
   xmlns:dc="http://purl.org/dc/elements/1.1/"
   xmlns:cc="http://creativecommons.org/ns#"
   xmlns:rdf="http://www.w3.org/1999/02/22-rdf-syntax-ns#"
   xmlns:svg="http://www.w3.org/2000/svg"
   xmlns="http://www.w3.org/2000/svg"
   id="svg10"
   version="1.1"
   viewBox="0 0 17 17"
   height="17"
   width="17">
  <metadata
     id="metadata16">
    <rdf:RDF>
      <cc:Work
         rdf:about="">
        <dc:format>image/svg+xml</dc:format>
        <dc:type
           rdf:resource="http://purl.org/dc/dcmitype/StillImage" />
        <dc:title></dc:title>
      </cc:Work>
    </rdf:RDF>
  </metadata>
  <defs
     id="defs14" />
  <g
     id="g8">
    <g
       id="g4" />
    <g
       id="g6" />
  </g>
  <path
     d="m 10.541051,-8.5815258 h 3.123455 c 0.56927,0 1.027563,0.458293 1.027563,1.0275627 0,0.5692698 -0.458293,1.0275628 -1.027563,1.0275628 h -3.123455 c -0.5692702,0 -1.0275632,-0.458293 -1.0275632,-1.0275628 0,-0.5692697 0.458293,-1.0275627 1.0275632,-1.0275627 z m 7.302785,7.1714154 c -0.88264,-0.05824 -1.457214,0.4298814 -1.548241,1.31529 L 16.097134,1.835568 C 16.080583,1.9965514 16.02805,2.1146417 15.823313,2.1416511 15.494708,2.201717 15.156566,2.3407696 14.828107,2.3994234 13.226819,2.6591444 11.659408,2.596239 10.114639,2.2924253 A 8.879882,9.2154506 44.999998 0 1 7.8829948,1.618427 C 7.7307899,1.5273462 7.6948075,1.484453 7.711358,1.3234697 L 7.909819,-0.60691879 C 8.0008468,-1.4923274 7.533707,-2.0491856 6.6150841,-2.150319 L 5.0920761,-2.252235 3.4879065,-2.3573739 c -0.881864,-0.0589 -1.4572135,0.4298814 -1.5474649,1.3146304 L 1.7412042,0.88830453 A 2.4067888,2.4977407 44.999998 0 0 2.1381558,2.5345407 C 2.7049676,3.30057 3.4569401,3.8371254 4.297573,4.2970716 c 1.7178796,0.9635381 3.5213931,1.4870192 5.509436,1.7802739 2.621688,0.416103 5.221694,0.2642221 7.834738,-0.4142546 1.16396,-0.3276749 2.300214,-0.7787346 3.265607,-1.5254112 0.698439,-0.5211782 1.086233,-1.1431809 1.177261,-2.0285895 0.02117,-0.6056754 0.123352,-1.20671577 0.18191,-1.76940509 0.09103,-0.8854086 -0.412726,-1.48591241 -1.294735,-1.54340021 z"
     style="fill:#000001;fill-opacity:1;stroke:none;stroke-width:4.75121117;stroke-linecap:round;stroke-linejoin:bevel;stroke-miterlimit:4;stroke-dasharray:none;stroke-opacity:1"
     transform="matrix(0.75199366,0.65917034,-0.63083604,0.77591616,0,0)"
     id="rect823" />
</svg>
