<?xml version="1.0" encoding="UTF-8" standalone="no"?>
<svg
   xmlns:dc="http://purl.org/dc/elements/1.1/"
   xmlns:cc="http://creativecommons.org/ns#"
   xmlns:rdf="http://www.w3.org/1999/02/22-rdf-syntax-ns#"
   xmlns:svg="http://www.w3.org/2000/svg"
   xmlns="http://www.w3.org/2000/svg"
   xmlns:sodipodi="http://sodipodi.sourceforge.net/DTD/sodipodi-0.dtd"
   xmlns:inkscape="http://www.inkscape.org/namespaces/inkscape"
   width="22"
   height="26"
   viewBox="0 0 22 26"
   fill="none"
   version="1.1"
   id="svg4"
   sodipodi:docname="refresh.svg"
   inkscape:version="0.92.5 (2060ec1f9f, 2020-04-08)">
  <metadata
     id="metadata10">
    <rdf:RDF>
      <cc:Work
         rdf:about="">
        <dc:format>image/svg+xml</dc:format>
        <dc:type
           rdf:resource="http://purl.org/dc/dcmitype/StillImage" />
      </cc:Work>
    </rdf:RDF>
  </metadata>
  <defs
     id="defs8" />
  <sodipodi:namedview
     pagecolor="#ffffff"
     bordercolor="#666666"
     borderopacity="1"
     objecttolerance="10"
     gridtolerance="10"
     guidetolerance="10"
     inkscape:pageopacity="0"
     inkscape:pageshadow="2"
     inkscape:window-width="1920"
     inkscape:window-height="1016"
     id="namedview6"
     showgrid="false"
     inkscape:zoom="9.0769231"
     inkscape:cx="11"
     inkscape:cy="13"
     inkscape:window-x="0"
     inkscape:window-y="27"
     inkscape:window-maximized="1"
     inkscape:current-layer="svg4" />
  <path
     style="color:#000000;font-style:normal;font-variant:normal;font-weight:normal;font-stretch:normal;font-size:medium;line-height:normal;font-family:sans-serif;font-variant-ligatures:normal;font-variant-position:normal;font-variant-caps:normal;font-variant-numeric:normal;font-variant-alternates:normal;font-feature-settings:normal;text-indent:0;text-align:start;text-decoration:none;text-decoration-line:none;text-decoration-style:solid;text-decoration-color:#000000;letter-spacing:normal;word-spacing:normal;text-transform:none;writing-mode:lr-tb;direction:ltr;text-orientation:mixed;dominant-baseline:auto;baseline-shift:baseline;text-anchor:start;white-space:normal;shape-padding:0;clip-rule:nonzero;display:inline;overflow:visible;visibility:visible;opacity:0.7;isolation:auto;mix-blend-mode:normal;color-interpolation:sRGB;color-interpolation-filters:linearRGB;solid-color:#000000;solid-opacity:1;vector-effect:none;fill:#9aaaba;fill-opacity:1;fill-rule:nonzero;stroke:none;stroke-width:2;stroke-linecap:round;stroke-linejoin:round;stroke-miterlimit:10;stroke-dasharray:none;stroke-dashoffset:0;stroke-opacity:1;color-rendering:auto;image-rendering:auto;shape-rendering:auto;text-rendering:auto;enable-background:accumulate"
     d="M 6.1503906,0.79492188 A 1.0001,1.0001 0 0 0 5.8085938,2.7304688 L 8.2871094,3.703125 C 4.2084482,5.2500961 1.1413971,8.9049911 0.84179688,13.332031 A 1.0001,1.0001 0 1 0 2.8359375,13.466797 C 3.0818253,9.8334385 5.6527701,6.7621892 9.1152344,5.5039062 L 8.1835938,7.828125 a 1.0001,1.0001 0 1 0 1.8554682,0.7441406 l 1.81836,-4.5332031 a 1.0001,1.0001 0 0 0 -0.5625,-1.3027344 L 6.5410156,0.86914062 A 1.0001,1.0001 0 0 0 6.1503906,0.79492188 Z M 20.177734,11.453125 a 1.0001,1.0001 0 0 0 -1.007812,0.882813 c -0.374339,2.854822 -2.273075,5.648957 -5.1875,7.099609 -8.27e-4,4.12e-4 -0.0011,0.0015 -0.002,0.002 -0.356593,0.169098 -0.79312,0.292029 -1.214844,0.414062 l 1.371094,-2.023437 a 1.0008108,1.0008108 0 1 0 -1.658203,-1.121094 l -2.7968754,4.132813 a 1.0001,1.0001 0 0 0 0.3046875,1.412109 l 4.3359379,2.666016 a 1.0001,1.0001 0 1 0 1.046875,-1.703125 l -2.25586,-1.386719 c 0.628069,-0.164849 1.25459,-0.358486 1.744141,-0.591797 a 1.0001,1.0001 0 0 0 0.01367,-0.0078 c 3.51777,-1.749699 5.816495,-5.086492 6.28125,-8.63086 a 1.0001,1.0001 0 0 0 -0.97461,-1.144531 z"
     id="path2"
     inkscape:connector-curvature="0" />
</svg>
