<svg xmlns="http://www.w3.org/2000/svg" width="37" height="28" viewBox="0 0 37 28"><g><g opacity=".5"><path fill="#9aaaba" d="M23.506 25.29C22.014 27.097 19.813 28 16.972 28H16.9c-2.273-.07-4.474-.695-6.463-1.737-1.846-1.042-3.622-2.223-5.255-3.682A35.392 35.392 0 0 1 .212 17.3c-.213-.348-.213-.765.07-1.043.782-.973 1.99-1.528 3.268-1.528a6.098 6.098 0 0 1 3.55 1.39l1.137.763.07-9.866V2.918C8.308 1.39 9.658.14 11.22.14c1.562 0 2.84 1.25 2.84 2.849l.852 6.878.71.208c1.99.348 4.759.904 9.375 3.544.213.139.355.347.426.556 0 .278 1.35 7.156-1.917 11.116zm.284-10.352c-2.557-1.598-5.469-2.71-8.522-3.265-.427-.07-.924-.14-1.35-.278-.355-.07-.568-.348-.639-.695l-.923-7.504v-.07c0-.694-.497-1.25-1.207-1.25-.71 0-1.279.486-1.279 1.181v4.03L9.8 18.55a.742.742 0 0 1-.214.486.812.812 0 0 1-1.136.14L6.035 17.37l-.07-.07a4.576 4.576 0 0 0-2.486-.972c-.568 0-1.137.208-1.563.555 1.35 1.598 2.77 3.127 4.332 4.517 2.557 2.223 6.534 4.933 10.582 4.933h.07c2.345 0 4.049-.695 5.256-2.085 2.486-2.918 1.918-8.06 1.634-9.31zm6.817-13.757L31.957 0l5.042 5.42-4.972 5.627-1.42-1.25 3.125-3.474H19.244V4.516h14.417z"/></g></g></svg>