<svg xmlns="http://www.w3.org/2000/svg" width="23" height="19" viewBox="0 0 23 19"><g><g><path fill="#fff" d="M23 2.432c-.837.363-1.766.636-2.696.727.93-.545 1.673-1.454 2.045-2.545-.93.545-1.86.909-2.975 1.09A4.547 4.547 0 0 0 16.027.25c-2.603 0-4.649 2-4.649 4.545 0 .364 0 .728.093 1A12.698 12.698 0 0 1 1.988 1.16c-.372.727-.651 1.455-.651 2.273 0 1.545.837 3 2.045 3.727-.744 0-1.487-.182-2.045-.545v.09c0 2.182 1.58 4 3.719 4.455-.372.091-.744.182-1.209.182-.279 0-.558 0-.837-.091.558 1.818 2.325 3.09 4.37 3.182a9.507 9.507 0 0 1-5.764 1.909c-.372 0-.744 0-1.116-.091 2.045 1.273 4.463 2 7.066 2 8.554 0 13.203-6.91 13.203-12.91v-.545c.836-.636 1.58-1.454 2.231-2.363z"/></g></g></svg>