<svg xmlns="http://www.w3.org/2000/svg" width="14" height="17" viewBox="0 0 14 17"><g><g><path fill="#9aaaba" d="M6.9 8.73c1 0 1.8-.4 2.4-1 1.3-1.5 1.1-4 1.1-4.2-.1-1.8-.9-2.7-1.6-3.1-.6-.3-1.2-.5-1.9-.5-.4 0-1.1.1-1.8.5s-1.6 1.2-1.7 3c0 .2-.2 2.7 1.1 4.2.6.7 1.4 1.1 2.3 1.1zm-2.6.4s-1.3.9-2.8 1.3c-1.4.5-1.5 2.1-1.5 2.7v.1c0 .2 0 1.1.2 1.5 0 .1.1.2.2.2.1.1 2.5 1.6 6.6 1.6s6.5-1.5 6.6-1.6l.2-.2c.2-.4.2-1.3.2-1.5v-.1c0-.7-.1-2.2-1.5-2.7-1.5-.4-2.8-1.3-2.8-1.3-1.3 1.3-4.1 1.3-5.4 0z"/></g></g></svg>