<svg xmlns="http://www.w3.org/2000/svg" width="60" height="60" viewBox="0 0 60 60"><g><g><g><path fill="#4c75a3" d="M0 30C0 13.431 13.431 0 30 0c16.569 0 30 13.431 30 30 0 16.569-13.431 30-30 30C13.431 60 0 46.569 0 30z"/></g><g><path fill="#fff" d="M41.583 36.76c0-.1-.098-.1-.098-.199-.491-.794-1.277-1.788-2.554-2.98-.59-.596-.982-.894-1.08-1.093-.295-.397-.295-.695-.197-1.092.099-.298.491-.894 1.179-1.788.393-.497.688-.894.884-1.192 1.572-2.087 2.26-3.477 2.063-3.974l-.197-.199c-.098-.099-.196-.198-.393-.198-.196-.1-.49-.1-.884 0H35.69s-.098.1-.197.1c-.098.098-.098.098-.098.198a17.688 17.688 0 0 1-1.473 3.08c-.295.595-.688 1.092-.884 1.49-.295.397-.491.695-.688.893l-.491.497c-.196.1-.295.199-.393.199-.098 0-.196 0-.196-.1l-.295-.298c-.098-.099-.098-.298-.196-.496v-.596-.696-.596-1.093-.993-.795-.596c0-.198-.099-.298-.099-.397-.098-.1-.196-.298-.294-.298-.099-.1-.295-.1-.491-.199-.295 0-.885-.099-1.67-.099-1.67 0-2.75.1-3.242.298-.196.1-.294.298-.49.397-.197.2-.197.398-.1.398.59.1.983.298 1.18.596l.098.198c.098.1.098.298.196.596.099.298.099.596.099.994v1.689c0 .496-.099.794-.099 1.092 0 .298-.098.497-.196.596-.098.199-.098.298-.197.398l-.098.099c-.098 0-.196.1-.393.1 0-.1-.196-.2-.393-.299-.196-.099-.393-.298-.59-.496a8.756 8.756 0 0 1-.588-.994c-.295-.397-.492-.894-.786-1.39l-.197-.398c-.098-.298-.294-.596-.589-1.093-.196-.496-.393-.993-.59-1.39-.098-.199-.196-.398-.294-.497h-.098s-.098-.1-.197-.1c-.098 0-.196-.099-.294-.099h-3.733c-.393 0-.688.1-.786.298h-.098v.199c0 .1 0 .199.098.397.59 1.292 1.08 2.484 1.768 3.676.59 1.192 1.179 2.185 1.67 2.88.393.795.884 1.49 1.375 2.186.491.695.786 1.093.983 1.291l.392.398.295.298c.197.199.491.497.982.795.393.298.884.596 1.376.894.49.298 1.08.496 1.768.695.687.199 1.375.298 1.964.199h1.572c.294 0 .59-.1.687-.298l.099-.1c0-.099.098-.099.098-.298v-.397c0-.397 0-.795.098-1.093.098-.298.098-.596.196-.695.099-.199.197-.298.295-.398l.197-.198h.098c.196-.1.49 0 .786.198.294.2.589.497.785.795.295.298.59.696.884 1.093.393.397.688.695.983.894l.294.199c.197.099.393.198.688.298.295.099.59.099.786.099l3.438-.1c.294 0 .589-.099.785-.198.197-.1.295-.199.295-.397v-.497c.197-.1.098-.199.098-.298z"/></g></g></g></svg>