<svg xmlns="http://www.w3.org/2000/svg" width="14" height="8" viewBox="0 0 14 8"><g><g><path fill="#988177" d="M13.877 7.205c0-.053-.053-.053-.053-.106-.264-.423-.686-.953-1.372-1.59-.316-.317-.527-.476-.58-.582-.158-.212-.158-.37-.106-.583.053-.159.264-.476.633-.953.212-.265.37-.477.475-.636.845-1.113 1.214-1.854 1.108-2.12L13.877.53c-.053-.053-.106-.106-.211-.106-.106-.053-.264-.053-.475 0H10.711s-.053.053-.105.053c-.053.053-.053.053-.053.106a9.41 9.41 0 0 1-.792 1.642c-.158.318-.369.583-.475.795-.158.212-.263.37-.369.477l-.264.265c-.105.053-.158.106-.21.106-.054 0-.106 0-.106-.053l-.159-.16c-.052-.052-.052-.158-.105-.264v-.318-.371-.318-.583-.53-.423V.53c0-.106-.053-.16-.053-.212-.053-.053-.105-.16-.158-.16-.053-.052-.158-.052-.264-.105C7.44.053 7.123 0 6.701 0 5.804 0 5.224.053 4.96.159c-.106.053-.158.159-.264.212-.106.106-.106.212-.053.212.317.053.528.159.633.318l.053.106c.053.053.053.159.106.318.052.158.052.317.052.53v.9c0 .265-.052.424-.052.583 0 .159-.053.265-.106.318-.053.106-.053.159-.105.212l-.053.053c-.053 0-.106.053-.211.053 0-.053-.106-.106-.211-.16-.106-.052-.211-.158-.317-.264a4.663 4.663 0 0 1-.316-.53c-.159-.212-.264-.477-.423-.742l-.105-.212c-.053-.159-.158-.318-.317-.583-.105-.264-.21-.53-.316-.741C2.902.636 2.849.53 2.796.477h-.052S2.69.424 2.638.424 2.533.37 2.48.37H.475C.264.37.105.424.053.53H0v.106c0 .053 0 .106.053.212.316.688.58 1.324.95 1.96.316.636.633 1.166.897 1.536.21.424.474.795.738 1.166.264.37.422.583.528.689l.21.212.16.159c.105.106.263.264.527.423.21.16.475.318.739.477.263.16.58.265.95.371.369.106.738.159 1.055.106h.844c.158 0 .316-.053.37-.159l.052-.053c0-.053.053-.053.053-.159v-.212c0-.212 0-.424.052-.583.053-.158.053-.317.106-.37.053-.106.105-.16.158-.212l.106-.106H8.6c.105-.053.263 0 .422.106.158.106.316.265.422.424.158.158.316.37.475.582.21.212.369.371.527.477l.159.106c.105.053.21.106.369.159.158.053.317.053.422.053l1.847-.053a.99.99 0 0 0 .422-.106c.105-.053.158-.106.158-.212v-.265c.106-.053.053-.106.053-.159z"/></g></g></svg>