<svg xmlns="http://www.w3.org/2000/svg" width="60" height="60" viewBox="0 0 60 60"><g><g><g><path fill="#cd201f" d="M0 30C0 13.431 13.431 0 30 0c16.569 0 30 13.431 30 30 0 16.569-13.431 30-30 30C13.431 60 0 46.569 0 30z"/></g><g><path fill="#fff" d="M37.374 21c3.406 0 6.114 2.857 6.201 6.34v6.07c0 3.483-2.795 6.34-6.201 6.34H22.7c-3.406 0-6.201-2.768-6.201-6.25v-6.16c0-3.483 2.795-6.34 6.201-6.34zM33.88 31c.175-.179.175-.446 0-.714l-5.59-4.018c-.261-.179-.61 0-.61.357v8.036c0 .357.349.535.61.357z"/></g></g></g></svg>